<?xml version="1.0" encoding="UTF-8" standalone="no"?>
<svg width="124px" height="20px" viewBox="0 0 124 20" version="1.1" xmlns="http://www.w3.org/2000/svg"
     xmlns:xlink="http://www.w3.org/1999/xlink">
    <!-- Generator: Sketch 43.2 (39069) - http://www.bohemiancoding.com/sketch -->
    <title>Logo/UEFA.com</title>
    <desc>Created with Sketch.</desc>
    <defs></defs>
    <g id="Symbols" stroke="none" stroke-width="1" fill="none" fill-rule="evenodd">
        <g id="Logo/UEFA.com" fill="#ffffff">
            <path d="M69.4201379,19.5048734 L69.4201379,17.0330465 L71.3798842,17.0330465 L71.3798842,19.5048734 L69.4201379,19.5048734 Z M5.07236599,14.5839172 C5.85778691,15.3949422 7.09854438,15.8392067 8.41888193,15.8378227 C9.73852749,15.8405907 10.979977,15.3949422 11.7647059,14.5839172 C12.726587,13.6040441 13.0345274,12.6241709 13.0303754,10.5550885 L13.0324514,0 L16.8363799,0 L16.8363799,11.5425736 C16.8329199,13.9555805 16.124311,15.8219067 14.6676493,17.2453523 C13.0248394,18.8549462 11.009733,19.6078431 8.41888193,19.6147631 C5.82664688,19.6078431 3.8129245,18.8549462 2.17011456,17.2453523 C0.713452842,15.8219067 0.0041520049,13.9555805 0,11.5439576 L0,0 L3.80462049,0 L3.80738849,10.5550885 C3.80323649,12.6241709 4.11117685,13.6040441 5.07236599,14.5839172 Z M33.5322836,3.58940824 L23.8954802,3.58940824 L23.8954802,7.98361342 L32.7143386,7.98361342 L32.7143386,11.5197376 L23.8954802,11.5197376 L23.8954802,13.3729158 C23.8954802,15.4136262 24.606857,15.9153268 26.4378912,15.9153268 L33.5322836,15.9153268 L33.5322836,19.504735 L26.2233709,19.504735 C22.8367189,19.504735 20.0908597,17.9857932 20.0908597,13.7811963 L20.0908597,1.43036569 C20.0908597,0.523152617 20.6908244,0 21.5219174,0 L33.5322836,0 L33.5322836,3.58940824 Z M39.9727352,11.5197376 L39.9789632,19.504735 L37.5991724,19.504735 C36.7673874,19.504735 36.1688067,18.9815824 36.1688067,18.0736773 L36.1688067,5.72423075 C36.1688067,1.52032579 38.9139739,0 42.3006259,0 L49.6088465,0 L49.6088465,3.58940824 L42.5151462,3.58940824 C40.68342,3.58940824 39.9727352,4.09110883 39.9727352,6.13320324 L39.9720432,7.98361342 L48.7922856,7.98361342 L48.7922856,11.5197376 L39.9727352,11.5197376 Z M57.62706,0.00553600653 C58.7474093,0.00553600653 59.1190138,0.5930447 59.35983,1.2732815 L66.5068145,19.507503 L62.4233177,19.508887 L61.01648,15.9222468 L56.3634665,15.9222468 L57.635364,12.3307626 L59.6096423,12.3307626 L57.1066754,5.94705502 L52.3041897,19.508887 L48.4961092,19.507503 L54.9545528,1.2732815 C55.1946771,0.593736701 55.5655896,0.00553600653 56.6873229,0.00553600653 L57.62706,0.00553600653 Z   "
                  id="Combined-Shape"></path>
        </g>
    </g>
</svg>
